<svg width="614" height="435" viewBox="0 0 614 435" xmlns="http://www.w3.org/2000/svg"><defs><radialGradient cx="78.848%" cy="20.889%" fx="78.848%" fy="20.889%" r="62.883%" id="a"><stop stop-color="#E2C9AF" offset="0%"/><stop stop-color="#DBBB9A" offset="100%"/></radialGradient></defs><g fill="none" fill-rule="evenodd"><g fill-rule="nonzero"><path d="M523.84 163.59a47.295 47.295 0 0 1 12.719 17.07c23.573 7.108 37.78 31.07 32.688 55.137a47.266 47.266 0 0 1 18.912 39.499 47.417 47.417 0 0 1 24.414 33.6 47.346 47.346 0 0 1-11.427 39.906l-8.563 6.099-99.02-179.696 30.278-11.615Z" fill="#86C95F"/><path d="M480.54 98.28a41.094 41.094 0 0 1 39.857 10.441c10.46 10.372 14.599 25.56 10.857 39.842-3.743 14.282-14.797 25.49-29 29.4l-26.841-25.766 5.128-53.918Z" fill="#E04C4C"/><path d="m418.81 33.858 35.652-5.68c6.065-.948 11.796 3.05 13.01 9.076l25.506 125.494-51.845-69.045-22.323-59.845Z" fill="#F9C44E"/><path d="m367.814 24.661 24.414-14.143c5.58-3.175 12.677-1.246 15.882 4.317l198.12 343.227a11.615 11.615 0 0 1-4.26 15.897l-24.383 12.03L367.814 24.66Z" fill="#8F5C4A"/></g><g fill-rule="nonzero"><path d="M142.327 128.837a47.295 47.295 0 0 1 17.07-12.719c7.108-23.573 31.07-37.779 55.137-32.688a47.266 47.266 0 0 1 39.498-18.911 47.417 47.417 0 0 1 33.6-24.415 47.346 47.346 0 0 1 39.907 11.427l6.098 8.563-179.696 99.02-11.614-30.277Z" fill="#86C95F"/><path d="M96.076 178.279a41.094 41.094 0 0 1 10.441-39.856c10.372-10.46 25.56-14.6 39.842-10.857 14.282 3.742 25.49 14.797 29.4 29l-25.766 26.84-53.917-5.127Z" fill="#E04C4C"/><path d="m49.974 218.001-5.678-35.652c-.95-6.065 3.048-11.796 9.075-13.01l125.494-25.505-69.045 51.844-59.846 22.323Z" fill="#F9C44E"/></g><path d="M0 152.49h428c5 0 10 5 10 10v428h-.5C198.292 590.49 3.922 398.294.059 159.734L0 152.49Z" fill="url(#a)" transform="rotate(-30 118.095 182.929)"/><g stroke="#C4A483" stroke-linecap="round" stroke-width="17"><path d="m292.99 321.047 35.871-133.87"/><path d="m235.67 261.765 24.89-92.89"/><path d="m372.273 298.367 24.89-92.89"/></g></g></svg>